<svg viewBox="0 0 3206 1024" xmlns="http://www.w3.org/2000/svg" xmlns:xlink="http://www.w3.org/1999/xlink"><mask id="a" fill="#fff"><path d="m.29737595.27739615h198.49405805v296.42637285h-198.49405805z" fill="#fff" fill-rule="evenodd"/></mask><mask id="b" fill="#fff"><path d="m0 .43315941h866.106453v1020.66208059h-866.106453z" fill="#fff" fill-rule="evenodd"/></mask><g fill="none" fill-rule="evenodd" transform="translate(0 1)"><g fill="#010202"><path d="m1395.21727 310.225594c0-15.479901-2.44072-28.312628-7.31617-38.508464-4.87744-10.18761-11.38602-18.314249-19.50978-24.379918-8.13174-6.059499-17.38812-10.383011-27.76516-12.964366-10.38102-2.57724-21.07312-3.871003-32.07828-3.871003h-31.89084v160.220879h30.38932c11.50368 0 22.57065-1.353411 33.20492-4.062291 10.62829-2.710937 20.0083-7.159917 28.14004-13.353111 8.12376-6.191138 14.63234-14.445302 19.50978-24.768664 4.87545-10.315134 7.31617-23.088212 7.31617-38.313062m66.78273 0c0 23.995285-4.31512 44.699601-12.94338 62.115003-8.63025 17.415403-20.01428 31.73318-34.14212 42.957444-14.13383 11.224265-30.08025 19.482543-47.83726 24.768664-17.763 5.290235-35.77127 7.933295-54.02679 7.933295h-99.05045v-274h96.0494c18.75803 0 37.2668 2.260485 55.52831 6.771171 18.25354 4.516856 34.51501 11.997643 48.77446 22.446473 14.25547 10.44883 25.75914 24.447794 34.51701 41.990722 8.75189 17.547041 13.13082 39.220136 13.13082 65.017228"/><path d="m1805.95971 448h-65.29332l-54.08633-185.376232h-1.15807l-54.08838 185.376232h-65.67729l-77.65632-274h71.08777l43.26948 182.278606h1.15806l48.67996-182.278606h68.76753l49.06598 182.278606h1.15807l44.04563-182.278606h68.76752z"/><path d="m2008.40895 247.143867-35.42951 94.043585h70.07235zm74.79657 200.856133-21.6523-53.792963h-107.86188l-20.4723 53.792963h-73.21904l116.91698-274h65.34814l115.73488 274z"/><path d="m2325.91673 257.980813c0-6.446139-1.36529-11.670515-4.08559-15.675184-2.72236-3.994385-6.22194-7.091988-10.49464-9.286637-4.27886-2.188479-9.07383-3.675575-14.38694-4.451004-5.31311-.773372-10.43295-1.160058-15.35539-1.160058h-35.37416v63.854625h31.49007c5.43854 0 11.01279-.446334 16.72069-1.355458 5.69967-.900896 10.88119-2.51346 15.54661-4.835633 4.66748-2.322173 8.48577-5.672767 11.4672-10.062066 2.97937-4.385184 4.47215-10.062065 4.47215-17.028585zm2.70796 190.019187-59.46823-108.749291h-22.54784v108.749291h-64.60862v-274h104.45698c13.15325 0 25.97957 1.355458 38.49335 4.064318 12.50556 2.708859 23.72602 7.2915 33.65726 13.739697 9.92714 6.450253 17.85774 14.965574 23.79388 25.54185 5.9279 10.582446 8.89905 23.740057 8.89905 39.47489 0 18.575329-5.02936 34.188809-15.09015 46.826039-10.05873 12.645458-23.98509 21.672932-41.78115 27.090651l71.57078 117.262555z"/><path d="m2571.70822 448h-65.32499l-102.38323-274h73.349l62.65303 194.276249h1.52684l62.27132-194.276249h72.19981z"/><path d="m2702 448v-274h190.78706v55.728465h-124.65215v51.859518h117.83757v53.019585h-117.83757v56.888532h131.86509v56.5039z"/><path d="m3084.10706 254.908705c-5.37054-7.472033-12.38667-13.417727-21.0445-17.824311-8.66367-4.406583-17.01806-6.609875-25.07095-6.609875-4.15093 0-8.36022.400211-12.62592 1.202763-4.27348.800423-8.11514 2.341663-11.52887 4.60456-3.41956 2.273542-6.28475 5.209136-8.60142 8.813168-2.32055 3.604031-3.47597 8.210721-3.47597 13.817938 0 4.806795.91422 8.813167 2.7446 12.016988 1.83038 3.20382 4.51273 6.007429 8.05289 8.410827 3.53238 2.403397 7.74167 4.606689 12.62592 6.609875 4.87842 2.001057 10.36762 4.074493 16.46953 6.207535 8.78232 3.20382 17.93422 6.746117 27.44791 10.614119 9.51759 3.874387 18.17347 9.013272 25.98711 15.420913 7.80392 6.40977 14.27152 14.356521 19.39503 23.83174 5.12545 9.481606 7.68526 21.298487 7.68526 35.448517 0 16.291586-2.7446 30.377752-8.2338 42.256368-5.48919 11.885003-12.87101 21.698699-22.14156 29.441087-9.27444 7.748775-19.88909 13.485849-31.84199 17.221865-11.95679 3.738145-24.27928 5.607218-36.96355 5.607218-18.545 0-36.47922-3.542297-53.80071-10.61199-17.32734-7.07395-31.7214-17.155873-43.18607-30.24151l40.99-45.662423c6.34311 8.549198 14.6975 15.68914 25.07095 21.428343 10.36761 5.747717 20.67881 8.613061 30.92583 8.613061 4.63138 0 9.148-.532196 13.54014-1.602974 4.39408-1.064393 8.23573-2.803609 11.53081-5.207007 3.29312-2.403397 5.91129-5.607218 7.8681-9.61359 1.95098-4.004243 2.92744-8.811038 2.92744-14.418256 0-5.338991-1.2235-9.87543-3.65881-13.619962-2.4431-3.733888-5.91907-7.139942-10.43181-10.211778-4.51856-3.067578-10.12836-5.871187-16.83521-8.412956-6.71463-2.533253-14.33765-5.268741-22.87488-8.210721-8.29604-2.933465-16.41117-6.407641-24.33763-10.414013-7.93035-4.004243-15.00483-9.143128-21.22735-15.420913-6.22251-6.271399-11.22542-13.879674-15.00483-22.829083-3.78719-8.945152-5.67204-19.827497-5.67204-32.644907 0-15.753004 2.92744-29.240982 8.78232-40.455417 5.85488-11.214436 13.54014-20.425686 23.05773-27.638007 9.51369-7.208064 20.24894-12.476805 32.20573-15.821125 11.95291-3.335805 24.0303-5.004772 36.23218-5.004772 14.64109 0 29.58174 2.94198 44.8336 8.811038 15.24603 5.877574 28.60528 14.556627 40.07773 26.035032z"/><path d="m1333.70822 872h-65.32499l-102.38323-274h73.349l62.65303 194.276848h1.52684l62.27132-194.276848h72.19981z"/><path d="m1462 872v-274h190.78706v55.730103h-124.65215v51.859129h117.83757v53.019188h-117.83757v56.888104h131.86509v56.503476z"/><path d="m1883.29218 872-109.75103-179.181693h-1.15433l1.53706 179.181693h-63.92388v-274h75.09464l109.36421 178.797063h1.15637l-1.54114-178.797063h63.92592v274z"/><path d="m2129.54152 654.503476v217.496524h-67.08304v-217.496524h-78.45848v-56.503476h224v56.503476z"/><path d="m2448.06654 808.115609c-5.29354 13.192318-12.86024 24.49773-22.69615 33.920242-9.8418 9.422512-21.71551 16.771831-35.61131 22.047957-13.89973 5.276126-29.33712 7.916192-46.31217 7.916192-17.22413 0-32.72231-2.640066-46.49848-7.916192-13.78009-5.276126-25.46159-12.625445-35.05627-22.047957-9.59467-9.422512-16.97504-20.727924-22.14307-33.920242-5.16606-13.190315-7.74909-27.824855-7.74909-43.907624v-166.207985h62.73412v160.931859c0 7.291229.92377 14.197866 2.76739 20.729927 1.84755 6.536066 4.67182 12.379065 8.49047 17.524991 3.8108 5.151934 8.85527 9.232219 15.1275 12.246862 6.27616 3.016646 13.83893 4.524969 22.69616 4.524969 8.85526 0 16.42196-1.508323 22.69615-4.524969 6.27224-3.014643 11.37554-7.094928 15.31383-12.246862 3.9324-5.145926 6.76452-10.988925 8.4885-17.524991 1.7181-6.532061 2.58107-13.438698 2.58107-20.729927v-160.931859h63.10481v166.207985c0 16.082769-2.64775 30.717309-7.93346 43.907624"/><path d="m2671.91673 681.980813c0-6.446139-1.36529-11.670515-4.08559-15.673128-2.72236-3.996441-6.22194-7.094044-10.49464-9.288693-4.27886-2.188479-9.07383-3.677631-14.38694-4.451004-5.31311-.773372-10.43295-1.160058-15.35539-1.160058h-35.37416v63.856682h31.49007c5.43854 0 11.01279-.448391 16.72069-1.357515 5.69967-.89884 10.88119-2.51346 15.54661-4.835633 4.66748-2.322173 8.48577-5.672767 11.4672-10.064122 2.97937-4.383128 4.47215-10.060009 4.47215-17.026529zm2.70796 190.019187-59.46823-108.747234h-22.54784v108.747234h-64.60862v-274h104.45698c13.15325 0 25.97957 1.355458 38.49335 4.064318 12.50556 2.708859 23.72602 7.2915 33.65726 13.73764 9.92714 6.45231 17.85774 14.967631 23.79388 25.54185 5.9279 10.584503 8.89905 23.742114 8.89905 39.476947 0 18.575329-5.02936 34.188809-15.09015 46.826039-10.05873 12.645458-23.98509 21.672932-41.78115 27.090651l71.57078 117.262555z"/><path d="m2776 872v-274h190.78706v55.730103h-124.65215v51.859129h117.83757v53.019188h-117.83757v56.888104h131.86509v56.503476z"/><path d="m158.799731 80.7603951c-5.383967-7.4346403-12.417639-13.3488956-21.097117-17.7300608-8.685328-4.3811651-17.060604-6.574924-25.13363-6.574924-4.161313 0-8.381127.4002128-12.6574904 1.1964033-4.2841637.7961905-8.1354259 2.3292806-11.5576869 4.5823303-3.4281109 2.2572847-6.3004701 5.1773556-8.6229275 8.7644478-2.3263574 3.5849747-3.4846611 8.167305-3.4846611 13.7448733 0 4.7834955.916503 8.7665654 2.7514588 11.9534448 1.8349559 3.1868795 4.5240144 5.9777812 8.0730257 8.3684702 3.5412113 2.388571 7.7610248 4.580213 12.6574904 6.572806 4.890616 1.990477 10.393533 4.052949 16.510703 6.174712 8.804278 3.186879 17.979057 6.710445 27.516537 10.557994 9.541381 3.8539 18.218908 8.965613 26.052083 15.341489 7.823425 6.371641 14.307196 14.280608 19.443512 23.705724 5.138267 9.429352 7.704475 21.183749 7.704475 35.258957 0 16.205441-2.751459 30.21924-8.254376 42.035045-5.502918 11.820041-12.903191 21.581844-22.196921 29.283293-9.29763 7.707802-19.938814 13.414539-31.921602 17.132918-11.986688 3.716262-24.339977 5.575451-37.055968 5.575451-18.5913593 0-36.5704166-3.523566-53.935222-10.557994-17.3706554-7.034427-31.8007014-17.060922-43.29403805-30.079483l41.09248105-45.420973c6.3589703 8.503992 14.734247 15.608298 25.1336301 21.315036 10.3935332 5.717325 20.7305161 8.567517 31.0031489 8.567517 4.642965 0 9.170879-.529382 13.573993-1.594498 4.405064-1.058764 8.256327-2.788784 11.559637-5.179473 3.301361-2.390689 5.926069-5.577569 7.887775-9.562756 1.955857-3.98307 2.93476-8.764448 2.93476-14.342016 0-5.31076-1.226554-9.82533-3.667962-13.547944-2.449208-3.714143-5.933869-7.102188-10.457883-10.157781-4.529865-3.051357-10.153683-5.840142-16.877304-8.36847-6.7314217-2.519858-14.373496-5.240881-22.9320733-8.167305-8.3167766-2.920071-16.4522025-6.373759-24.3984778-10.358946-7.9501754-3.98307-15.042348-9.094782-21.2804179-15.339372-6.2380699-6.23612-11.2534859-13.806282-15.042348-22.708369-3.7966621-8.897852-5.6862181-19.722654-5.6862181-32.4722895 0-15.6697062 2.9347594-29.0863627 8.8042781-40.2414995s13.5739933-20.3197974 23.1153737-27.4918642c9.5374804-7.1699494 20.2995647-12.41294837 32.2862529-15.73534959 11.9827882-3.32028369 24.0903764-4.98254306 36.3227654-4.98254306 14.677697 0 29.655695 2.92642351 44.945694 8.76656535 15.284149 5.8464944 28.676791 14.4796555 40.177928 25.8973658z" mask="url(#a)" transform="translate(3000 598)"/></g><path d="m654.086787 360.42691-162.858754 346.421761-85.950295-182.824272 62.327278-132.576741c29.76-63.301615 103.635541-89.734773 165.009443-59.041111l14.483607 7.246212c7.492852 3.746811 10.621311 13.047794 6.988721 20.774151m-282.614295-359.71067564-310.5712133-.28305515c-33.6283935-.02725716-60.90229509 28.08536079-60.90229509 62.77114829v256.1418455h170.08531139c10.98518 0 21.41541 2.394437 30.878033 6.652844 30.847541 10.343045 57.753508 33.031488 73.023803 65.513638l171.372066 364.533097c3.898885 8.288274.542754 18.262299-7.49082 22.281682l-12.156066 6.080444c-62.115868 31.064778-136.887868 4.315018-167.007672-59.756087l-115.541573-245.771543h-143.16308239v477.964826c0 35.484632 27.88983609 64.251426 62.29068849 64.251426h301.8078689c271.846623 0 498.441377-223.045364 501.966229-503.41673 3.585837-284.875088-219.225901-516.96353564-494.591278-516.96353564" fill="#e03e5e" mask="url(#b)"/></g></svg>
