<?xml version="1.0" encoding="UTF-8"?>
<svg width="21px" height="30px" viewBox="0 0 21 30" version="1.1" xmlns="http://www.w3.org/2000/svg" xmlns:xlink="http://www.w3.org/1999/xlink">
    <!-- Generator: Sketch 55.2 (78181) - https://sketchapp.com -->
    <title>Shape</title>
    <desc>Created with Sketch.</desc>
    <g id="Page-1" stroke="none" stroke-width="1" fill="none" fill-rule="evenodd">
        <g id="breakpoint-768" transform="translate(-338.000000, -1501.000000)" fill="#3759F0" fill-rule="nonzero">
            <path d="M358.9918,1509.74305 C359.0246,1509.54283 358.959,1509.3426 358.795002,1509.17575 L350.923077,1501.16685 C350.791878,1501.03337 350.59508,1501 350.398282,1501 C350.365482,1501 350.365482,1501 350.332683,1501 L340.164779,1501 C338.983991,1501 338,1502.00111 338,1503.23582 L338,1528.76418 C338,1529.99889 338.983991,1531 340.164779,1531 L356.827021,1531 C358.040609,1531 358.9918,1529.99889 358.9918,1528.76418 L358.9918,1509.84316 C358.9918,1509.80979 358.9918,1509.77642 358.9918,1509.74305 Z M343.24795,1507.34038 L346.527919,1507.34038 C346.888715,1507.34038 347.183913,1507.64071 347.183913,1508.00779 C347.183913,1508.37486 346.888715,1508.67519 346.527919,1508.67519 L343.24795,1508.67519 C342.887153,1508.67519 342.591956,1508.37486 342.591956,1508.00779 C342.591956,1507.64071 342.887153,1507.34038 343.24795,1507.34038 Z M353.74385,1524.69299 L343.24795,1524.69299 C342.887153,1524.69299 342.591956,1524.39266 342.591956,1524.02558 C342.591956,1523.65851 342.887153,1523.35818 343.24795,1523.35818 L353.74385,1523.35818 C354.104647,1523.35818 354.399844,1523.65851 354.399844,1524.02558 C354.399844,1524.39266 354.104647,1524.69299 353.74385,1524.69299 Z M353.74385,1519.35373 L343.24795,1519.35373 C342.887153,1519.35373 342.591956,1519.05339 342.591956,1518.68632 C342.591956,1518.31924 342.887153,1518.01891 343.24795,1518.01891 L353.74385,1518.01891 C354.104647,1518.01891 354.399844,1518.31924 354.399844,1518.68632 C354.399844,1519.05339 354.104647,1519.35373 353.74385,1519.35373 Z M353.74385,1514.01446 L343.24795,1514.01446 C342.887153,1514.01446 342.591956,1513.71413 342.591956,1513.34705 C342.591956,1512.97998 342.887153,1512.67964 343.24795,1512.67964 L353.74385,1512.67964 C354.104647,1512.67964 354.399844,1512.97998 354.399844,1513.34705 C354.399844,1513.71413 354.104647,1514.01446 353.74385,1514.01446 Z M351.119875,1509.0089 L351.119875,1503.26919 L356.761421,1509.0089 L351.119875,1509.0089 Z" id="Shape"></path>
        </g>
    </g>
</svg>